<svg width="19" height="19" viewBox="0 0 19 19" fill="none" xmlns="http://www.w3.org/2000/svg">
<g id="Frame">
<g id="Group">
<path id="Vector" fill-rule="evenodd" clip-rule="evenodd" d="M4.52607 4.5625H2.53176C2.00523 4.5625 1.50053 4.76431 1.12879 5.12387C0.944393 5.30166 0.798122 5.51282 0.698353 5.74526C0.598584 5.9777 0.547275 6.22685 0.547363 6.47846V14.1423C0.547363 14.6507 0.756386 15.138 1.12879 15.4969C1.31293 15.675 1.53163 15.8162 1.77237 15.9125C2.01311 16.0088 2.27116 16.0584 2.53176 16.0583H15.761C16.2876 16.0583 16.7923 15.8565 17.164 15.4969C17.3484 15.3191 17.4947 15.108 17.5945 14.8755C17.6942 14.6431 17.7455 14.3939 17.7454 14.1423V6.47846C17.7454 5.97009 17.5364 5.4828 17.164 5.12387C16.9799 4.94583 16.7612 4.80461 16.5204 4.70828C16.2797 4.61195 16.0216 4.56241 15.761 4.5625H13.7667L13.3751 3.35224C13.249 2.96259 12.9973 2.62203 12.6566 2.3802C12.3159 2.13837 11.9042 2.00793 11.4814 2.00787H6.81143C6.38861 2.00793 5.97686 2.13837 5.63621 2.3802C5.29555 2.62203 5.0438 2.96259 4.91766 3.35224L4.52607 4.5625ZM5.01225 5.83981C5.1532 5.83983 5.29048 5.79633 5.40401 5.71567C5.51754 5.63501 5.60138 5.52141 5.64329 5.39147L6.1804 3.73352C6.2223 3.60358 6.30614 3.48998 6.41968 3.40932C6.53321 3.32866 6.67048 3.28516 6.81143 3.28518H11.4814C11.7704 3.28518 12.0264 3.46656 12.1124 3.73352L12.6495 5.39147C12.7355 5.65843 12.9915 5.83981 13.2806 5.83981H15.761C15.848 5.83955 15.9341 5.8559 16.0145 5.88791C16.0949 5.91991 16.1679 5.96694 16.2294 6.0263C16.2908 6.08566 16.3395 6.15616 16.3727 6.23376C16.4058 6.31136 16.4228 6.39452 16.4225 6.47846V14.1423C16.4228 14.2263 16.4058 14.3094 16.3727 14.387C16.3395 14.4646 16.2908 14.5351 16.2294 14.5945C16.1679 14.6538 16.0949 14.7009 16.0145 14.7329C15.9341 14.7649 15.848 14.7812 15.761 14.781H2.53176C2.44482 14.7812 2.35869 14.7649 2.27832 14.7329C2.19795 14.7009 2.12492 14.6538 2.06345 14.5945C2.00197 14.5351 1.95326 14.4646 1.92011 14.387C1.88696 14.3094 1.87003 14.2263 1.87029 14.1423V6.47846C1.87003 6.39452 1.88696 6.31136 1.92011 6.23376C1.95326 6.15616 2.00197 6.08566 2.06345 6.0263C2.12492 5.96694 2.19795 5.91991 2.27832 5.88791C2.35869 5.8559 2.44482 5.83955 2.53176 5.83981H5.01225ZM9.1464 5.83981C6.95629 5.83981 5.17762 7.55715 5.17762 9.67174C5.17762 11.7863 6.95629 13.5037 9.1464 13.5037C11.3365 13.5037 13.1152 11.7863 13.1152 9.67174C13.1152 7.55715 11.3365 5.83981 9.1464 5.83981ZM9.1464 7.11712C10.6069 7.11712 11.7923 8.26159 11.7923 9.67174C11.7923 11.0819 10.6069 12.2264 9.1464 12.2264C7.68589 12.2264 6.50054 11.0819 6.50054 9.67174C6.50054 8.26159 7.68589 7.11712 9.1464 7.11712Z" fill="white"/>
</g>
</g>
</svg>
