<svg width="23" height="20" viewBox="0 0 23 20" fill="none" xmlns="http://www.w3.org/2000/svg">
<g id="Frame">
<g id="Group">
<path id="Vector" d="M13.7659 9.90163L14.7882 8.87928C14.8626 9.15758 14.9062 9.44853 14.9062 9.75003C14.9062 11.6111 13.3923 13.125 11.5312 13.125C11.2297 13.125 10.9388 13.0814 10.6605 13.0071L11.6828 11.9847C12.2232 11.948 12.732 11.7168 13.115 11.3338C13.498 10.9508 13.7292 10.442 13.7659 9.90163ZM20.4604 9.4768C20.3912 9.35235 19.4099 7.63293 17.4918 6.17577L16.6732 6.99435C18.0718 8.02274 18.9581 9.22213 19.307 9.75088C18.6402 10.766 16.0249 14.25 11.5312 14.25C10.8574 14.25 10.2307 14.1638 9.64109 14.0263L8.71677 14.9506C9.56656 15.2112 10.5006 15.375 11.5312 15.375C17.4196 15.375 20.339 10.2417 20.4604 10.0233C20.5068 9.9397 20.5312 9.84566 20.5312 9.75003C20.5312 9.65441 20.5068 9.56037 20.4604 9.4768ZM18.1164 3.96022L5.74142 16.3352C5.63159 16.4451 5.48759 16.5 5.34373 16.5C5.19987 16.5 5.05587 16.4451 4.94605 16.3352C4.89378 16.283 4.85232 16.221 4.82403 16.1528C4.79574 16.0846 4.78118 16.0114 4.78118 15.9375C4.78118 15.8637 4.79574 15.7905 4.82403 15.7223C4.85232 15.654 4.89378 15.592 4.94605 15.5398L6.52048 13.9654C3.97517 12.4288 2.68184 10.1668 2.60211 10.0233C2.55564 9.93967 2.53125 9.84561 2.53125 9.74996C2.53125 9.65432 2.55564 9.56026 2.60211 9.47666C2.72347 9.25841 5.64284 4.12504 11.5312 4.12504C13.0538 4.12504 14.3726 4.47238 15.5 4.98594L17.321 3.16485C17.5408 2.94505 17.8968 2.94505 18.1164 3.16485C18.3361 3.38464 18.3362 3.74057 18.1164 3.96022ZM7.35931 13.1266L8.78342 11.7025C8.39009 11.1507 8.15623 10.4778 8.15623 9.75003C8.15623 7.889 9.6702 6.37504 11.5312 6.37504C12.259 6.37504 12.9319 6.60889 13.4837 7.00208L14.6352 5.8505C13.7254 5.48614 12.6915 5.25004 11.5312 5.25004C7.03756 5.25004 4.42222 8.73402 3.75566 9.74919C4.17894 10.3907 5.39562 12.0147 7.35931 13.1266ZM9.60003 10.8857L12.6669 7.81883C12.3324 7.62125 11.9472 7.50003 11.5312 7.50003C10.2906 7.50003 9.28123 8.50944 9.28123 9.75003C9.28123 10.166 9.40245 10.5512 9.60003 10.8857Z" fill="#8F8F8F"/>
</g>
</g>
</svg>
